<?xml version="1.0" encoding="iso-8859-1"?>
<!-- Generator: Adobe Illustrator 18.0.0, SVG Export Plug-In . SVG Version: 6.00 Build 0)  -->
<!DOCTYPE svg PUBLIC "-//W3C//DTD SVG 1.1//EN" "http://www.w3.org/Graphics/SVG/1.1/DTD/svg11.dtd">
<svg version="1.1" id="Capa_1" xmlns="http://www.w3.org/2000/svg" xmlns:xlink="http://www.w3.org/1999/xlink" x="0px" y="0px"
	 viewBox="0 0 60.003 60.003" style="enable-background:new 0 0 60.003 60.003;" xml:space="preserve">
<g>
	<path d="M59.796,26.568c-0.402-1.697-1.365-3.156-2.577-3.902c-0.811-0.499-1.677-0.66-2.508-0.462
		c-0.189,0.045-0.372,0.115-0.549,0.199c-2.336-5.685-5.98-9.364-9.727-11.737l1.359-2.719c0.247-0.494,0.047-1.095-0.447-1.342
		c-0.496-0.247-1.095-0.047-1.342,0.447l-1.302,2.604c-0.617-0.328-1.231-0.626-1.837-0.892l0.983-2.949
		c0.175-0.524-0.108-1.091-0.632-1.265c-0.527-0.177-1.09,0.108-1.265,0.632l-0.948,2.844c-0.693-0.248-1.366-0.461-2.011-0.642
		l0.856-2.569c0.175-0.524-0.108-1.091-0.632-1.265c-0.526-0.175-1.091,0.108-1.265,0.632l-0.908,2.723
		C33.779,6.64,32.7,6.495,31.9,6.418V4.5c0-0.553-0.448-1-1-1s-1,0.447-1,1v1.843c-0.525,0.026-1.441,0.097-2.632,0.284
		l-0.382-2.291c-0.091-0.544-0.602-0.92-1.151-0.822c-0.544,0.091-0.913,0.606-0.822,1.15l0.39,2.34
		c-1.072,0.242-2.258,0.573-3.508,1.02l-0.947-2.84c-0.175-0.523-0.74-0.809-1.265-0.632c-0.524,0.174-0.807,0.74-0.632,1.265
		l0.981,2.944c-0.863,0.378-1.741,0.822-2.621,1.327l-1.517-3.034c-0.247-0.494-0.847-0.694-1.342-0.447
		c-0.494,0.247-0.694,0.848-0.447,1.342l1.601,3.201c-0.881,0.602-1.749,1.288-2.594,2.05l-2.405-2.405
		c-0.391-0.391-1.023-0.391-1.414,0s-0.391,1.023,0,1.414l2.388,2.388c-3.075,3.272-5.646,7.835-6.826,14.213
		c-0.015,0.083-0.025,0.166-0.04,0.249c-0.254-0.07-0.512-0.118-0.776-0.118C1.73,28.938,0,31.321,0,34.363
		c0,3.041,1.73,5.424,3.939,5.424c0.403,0,0.798-0.102,1.177-0.267c0.701,2.671,1.863,5.178,3.459,7.378
		c3.244,4.472,9.631,9.784,21.817,9.602c0.186,0.003,0.368,0.004,0.551,0.004c11.798,0,18.071-5.202,21.266-9.605
		c2.881-3.971,4.346-8.946,4.23-14.076c0.034,0.001,0.07,0.014,0.104,0.014c0.227,0,0.452-0.026,0.672-0.079
		C59.363,32.245,60.497,29.526,59.796,26.568z M4.674,37.488c-0.206,0.167-0.456,0.299-0.734,0.299C3.022,37.787,2,36.381,2,34.363
		c0-2.019,1.022-3.425,1.939-3.425c0.167,0,0.335,0.047,0.504,0.14c-0.049,0.533-0.081,1.066-0.096,1.597
		c-0.001,0.033,0,0.067-0.001,0.1c-0.011,0.446-0.009,0.889,0.004,1.332c0.004,0.136,0.009,0.272,0.015,0.408
		c0.016,0.359,0.042,0.717,0.073,1.074c0.012,0.141,0.021,0.283,0.036,0.423c0.047,0.438,0.106,0.874,0.177,1.307
		C4.66,37.375,4.664,37.432,4.674,37.488z M50.59,45.725c-4.315,5.948-11.095,8.926-20.184,8.775h-0.014h-0.014
		c-9.109,0.118-15.869-2.826-20.185-8.775c-2.062-2.843-3.329-6.257-3.726-9.867c-0.008-0.077-0.009-0.155-0.017-0.231
		c-0.057-0.571-0.089-1.146-0.102-1.725c-0.005-0.252-0.001-0.504,0.002-0.757c0.004-0.406,0.021-0.813,0.047-1.221
		c0.019-0.294,0.039-0.589,0.069-0.884c0.064-0.623,0.138-1.246,0.253-1.868c1.096-5.925,3.437-10.162,6.238-13.198l1.234,1.234
		c0.195,0.195,0.451,0.293,0.707,0.293s0.512-0.098,0.707-0.293c0.391-0.391,0.391-1.023,0-1.414l-1.224-1.224
		c0.684-0.618,1.384-1.178,2.094-1.68l0.529,1.059c0.175,0.351,0.528,0.553,0.896,0.553c0.15,0,0.303-0.034,0.446-0.105
		c0.494-0.247,0.694-0.848,0.447-1.342l-0.626-1.251c0.795-0.464,1.589-0.87,2.371-1.218l0.411,1.233
		c0.14,0.419,0.53,0.684,0.949,0.684c0.104,0,0.211-0.017,0.316-0.052c0.524-0.174,0.807-0.74,0.632-1.265l-0.448-1.343
		c1.147-0.407,2.235-0.705,3.222-0.922l0.291,1.745c0.082,0.489,0.505,0.836,0.985,0.836c0.054,0,0.11-0.004,0.166-0.014
		c0.544-0.091,0.913-0.606,0.822-1.15L27.59,8.558c1.029-0.148,1.825-0.201,2.31-0.22V10.5c0,0.553,0.448,1,1,1s1-0.447,1-1V8.424
		c0.666,0.065,1.52,0.177,2.514,0.371l-0.463,1.389c-0.175,0.524,0.108,1.091,0.632,1.265c0.105,0.035,0.212,0.052,0.316,0.052
		c0.419,0,0.809-0.265,0.949-0.684l0.521-1.563c0.644,0.175,1.318,0.384,2.014,0.632l-0.433,1.298
		c-0.175,0.524,0.108,1.091,0.632,1.265c0.105,0.035,0.212,0.052,0.316,0.052c0.419,0,0.809-0.265,0.949-0.684l0.395-1.185
		c0.177,0.079,0.353,0.153,0.531,0.238c0.36,0.171,0.708,0.354,1.054,0.538l-0.823,1.646c-0.247,0.494-0.047,1.095,0.447,1.342
		c0.144,0.071,0.296,0.105,0.446,0.105c0.367,0,0.72-0.202,0.896-0.553l0.763-1.527c4.174,2.69,7.196,6.517,9.039,11.431
		l-0.003,0.004l0.182,0.512c0.271,0.762,0.507,1.526,0.716,2.299c0.015,0.055,0.029,0.11,0.043,0.165
		c0.203,0.766,0.38,1.541,0.527,2.34c0.124,0.668,0.207,1.336,0.272,2.004c0.011,0.114,0.026,0.224,0.035,0.339
		C54.794,36.685,53.466,41.76,50.59,45.725z M56.751,30.812c-0.136,0.031-0.281,0.031-0.436,0c-0.004-0.039-0.012-0.075-0.016-0.115
		c-0.068-0.63-0.153-1.26-0.269-1.89c-0.143-0.771-0.31-1.509-0.491-2.228c-0.022-0.085-0.048-0.169-0.07-0.254
		c-0.179-0.684-0.375-1.343-0.586-1.981c-0.006-0.018-0.01-0.035-0.016-0.053c0.101-0.07,0.204-0.117,0.309-0.143
		c0.38-0.09,0.751,0.069,0.995,0.22c0.758,0.467,1.402,1.486,1.68,2.66C58.315,28.993,57.644,30.6,56.751,30.812z"/>
	<path d="M33.696,38.418C27.24,38.418,22,43.913,22,47.5c0,0.804,0.259,1.398,0.77,1.77c0.984,0.714,2.396,0.255,4.351-0.382
		c1.832-0.597,4.111-1.339,6.575-1.339s4.744,0.742,6.575,1.339c1.253,0.408,2.283,0.744,3.12,0.744c0.469,0,0.877-0.105,1.23-0.362
		c0.511-0.371,0.77-0.966,0.77-1.77C45.392,43.913,40.152,38.418,33.696,38.418z M38.015,41.415
		C37.837,41.736,36.296,42.5,33.5,42.5c-2.615,0-4.118-0.664-4.435-0.942c1.363-0.69,2.934-1.14,4.631-1.14
		C35.267,40.418,36.725,40.81,38.015,41.415z M43.386,47.638c-0.471,0-1.624-0.368-2.495-0.651
		c-1.863-0.606-4.414-1.438-7.195-1.438s-5.332,0.831-7.195,1.438c-0.872,0.283-2.055,0.646-2.495,0.651
		C24.002,47.603,24,47.557,24,47.5c0-1.31,1.293-3.344,3.381-4.897c0.964,1.295,3.615,1.897,6.119,1.897
		c2.623,0,5.406-0.662,6.242-2.088c2.245,1.574,3.65,3.723,3.65,5.088C43.392,47.557,43.39,47.603,43.386,47.638z"/>
	<path d="M37,18.5c-3.597,0-6.7,2.126-8.139,5.184C27.61,21.77,25.452,20.5,23,20.5c-3.86,0-7,3.141-7,7s3.14,7,7,7
		c2.452,0,4.61-1.27,5.861-3.184C30.3,34.374,33.403,36.5,37,36.5c4.962,0,9-4.037,9-9S41.962,18.5,37,18.5z M37,20.5
		c1.68,0,3.222,0.595,4.43,1.585l-11.403,4.887C30.298,23.359,33.318,20.5,37,20.5z M23,22.5c2.605,0,4.727,2.01,4.955,4.556
		l-8.491-3.088C20.37,23.062,21.62,22.5,23,22.5z M23,32.5c-2.757,0-5-2.243-5-5c0-0.639,0.132-1.246,0.351-1.809l9.363,3.405
		C27.044,31.068,25.195,32.5,23,32.5z M37,34.5c-3.316,0-6.095-2.32-6.814-5.421l12.657-5.424C43.572,24.76,44,26.08,44,27.5
		C44,31.359,40.86,34.5,37,34.5z"/>
	<circle cx="24" cy="29.499" r="1"/>
	<circle cx="34.5" cy="29.999" r="1.5"/>
</g>
<g>
</g>
<g>
</g>
<g>
</g>
<g>
</g>
<g>
</g>
<g>
</g>
<g>
</g>
<g>
</g>
<g>
</g>
<g>
</g>
<g>
</g>
<g>
</g>
<g>
</g>
<g>
</g>
<g>
</g>
</svg>
